<svg width="100" height="112" viewBox="0 0 100 112" fill="none" xmlns="http://www.w3.org/2000/svg">
<circle cx="50" cy="50" r="50" fill="white"/>
<path d="M19.1836 89.377C21.5019 91.1938 23.9863 92.8071 26.6074 94.1973L26.6055 94.2031C26.2265 95.0834 25.8809 96.0463 25.5674 97.0908C25.2374 98.1735 25.2381 99.1718 25.5703 100.086L26.2021 100.357C26.9675 100.687 27.7143 100.692 28.4424 100.37C29.1923 100.103 29.9122 99.6416 30.6025 98.9863C31.2438 98.3776 31.8533 97.6568 32.4336 96.8262C35.1347 97.8399 37.9468 98.6256 40.8467 99.1621C40.6499 99.4899 40.4505 99.8177 40.2441 100.143C38.9606 102.176 37.4696 103.848 35.7715 105.158C34.0951 106.523 32.1947 107.406 30.0713 107.808C27.9479 108.209 25.6041 107.858 23.04 106.754C21.2797 105.996 19.927 105.028 18.9824 103.851C18.0379 102.673 17.4214 101.364 17.1338 99.9248C16.868 98.5402 16.8766 97.0459 17.1582 95.4434C17.4398 93.841 17.9184 92.2554 18.5938 90.6865C18.7827 90.2477 18.9794 89.811 19.1836 89.377ZM50 0C77.6142 0 100 22.3858 100 50C100 77.6142 77.6142 100 50 100C46.8735 100 43.8143 99.7111 40.8467 99.1621C41.8581 97.4772 42.7454 95.7551 43.5039 93.9932C45.2009 90.0513 46.7583 85.9581 48.1768 81.7148C49.6334 77.4882 51.0004 73.3134 52.2764 69.1904C52.5458 68.3538 52.8314 67.4786 53.1338 66.5654C53.4361 65.6524 53.7332 64.8052 54.0244 64.0234L55.3633 62.9668L56.8672 61.8447L58.2471 61.0098C58.7891 60.6989 59.3752 60.3389 60.0049 59.9297C60.6345 59.5205 61.2182 59.1138 61.7549 58.71C62.3464 58.2842 62.8455 57.8634 63.251 57.4482C63.7112 57.0113 64.0237 56.6014 64.1885 56.2188C64.3697 55.7978 64.3949 55.264 64.2646 54.6182C64.1891 53.9507 64.0019 53.2798 63.7021 52.6064C63.4407 51.9498 63.0885 51.3451 62.6465 50.792C62.2426 50.2553 61.83 49.8961 61.4092 49.7148C60.9118 49.5007 60.4139 49.4448 59.916 49.5479C59.4562 49.6675 59.0177 49.8422 58.6016 50.0713C58.9534 49.0433 59.3604 47.8342 59.8223 46.4453C60.3388 45.0348 60.8635 43.6051 61.3965 42.1562C61.9295 40.7073 62.4576 39.3235 62.9795 38.0059C63.5013 36.6883 63.9512 35.5891 64.3301 34.709C64.4454 34.4411 64.5887 34.1627 64.7588 33.873C64.9289 33.5834 65.1258 33.2822 65.3506 32.9707C65.5589 32.6975 65.7568 32.3972 65.9434 32.0693C66.1464 31.7031 66.3135 31.3667 66.4453 31.0605C66.7089 30.4483 66.8417 29.825 66.8428 29.1904C66.8821 28.5723 66.7728 27.9809 66.5166 27.417C66.6355 24.9279 65.5279 23.1808 63.1934 22.1758L63.0791 22.126C63.6539 21.7386 64.0406 21.3156 64.2383 20.8564C64.403 20.4737 64.4992 20.0386 64.5273 19.5518C64.5937 19.0815 64.5862 18.6248 64.5049 18.1816C64.44 17.7001 64.2846 17.2695 64.0391 16.8916C63.8317 16.5304 63.5175 16.2593 63.0967 16.0781C62.4079 15.7817 61.6312 15.7417 60.7666 15.959C59.9184 16.1381 59.1384 16.37 58.4268 16.6533L57.7939 16.8574C55.5659 17.7128 53.3891 18.9758 51.2637 20.6465C49.1765 22.3336 47.1572 24.2312 45.2061 26.3398C43.2715 28.4101 41.4545 30.5767 39.7549 32.8389C38.11 35.0792 36.6344 37.1887 35.3291 39.167C34.5229 40.4075 33.7189 41.6948 32.918 43.0283C32.1553 44.3784 31.461 45.7811 30.835 47.2354C30.2913 48.4983 29.8485 49.8954 29.5068 51.4268C29.1652 52.9579 29.045 54.4486 29.1465 55.8984C29.2863 57.3649 29.7277 58.7118 30.4697 59.9385C31.2118 61.1652 32.3868 62.1244 33.9941 62.8164C35.1422 63.3106 36.2824 63.5074 37.415 63.4053C38.5858 63.3196 39.7187 63.0589 40.8135 62.623C41.9466 62.2036 43.0256 61.6472 44.0498 60.9541C45.1287 60.2392 46.1149 59.5295 47.0078 58.8252C46.9473 59.0711 46.8922 59.2514 46.8428 59.3662C46.8099 59.4426 46.777 59.5193 46.7441 59.5957C44.0435 61.6539 41.312 63.8353 38.5508 66.1396C35.7733 68.4821 33.1243 70.9481 30.6035 73.5371C28.1209 76.1428 25.8319 78.8778 23.7373 81.7412C21.9392 84.1993 20.4216 86.7446 19.1836 89.377C7.50472 80.2242 0 65.9886 0 50C0 22.3858 22.3858 0 50 0ZM42.166 74.0244C41.2753 76.7256 40.4012 79.2298 39.5439 81.5371C38.6702 83.8827 37.673 86.3567 36.5527 88.959C36.3221 89.4948 35.9983 90.1949 35.5811 91.0586C35.2021 91.9388 34.7598 92.8602 34.2549 93.8223C33.7501 94.7841 33.1879 95.7213 32.5684 96.6338C32.5242 96.6988 32.4781 96.7625 32.4336 96.8262C30.4266 96.0729 28.4823 95.1917 26.6074 94.1973L26.7783 93.8018C27.5197 92.0796 28.4753 90.3356 29.6436 88.5703C30.8117 86.8051 32.084 85.0619 33.46 83.3408C34.8195 81.658 36.255 80.0076 37.7676 78.3906C39.302 76.8284 40.7687 75.3735 42.166 74.0244ZM59.4482 24.2373C59.24 24.5104 59.0588 24.7731 58.9053 25.0244C58.7899 25.2923 58.6828 25.5419 58.584 25.7715C57.6725 27.7833 56.5686 30.0301 55.2734 32.5117C53.9947 34.9551 52.5956 37.4148 51.0762 39.8906C49.5567 42.3665 47.9556 44.7165 46.2725 46.9404C44.5892 49.1644 42.9227 51.0331 41.2734 52.5459C40.6542 53.1412 40.0238 53.7094 39.3828 54.25C38.7584 54.7522 38.0543 55.1752 37.2715 55.5186C37.2895 54.5283 37.4689 53.5842 37.8096 52.6875C38.1502 51.7908 38.5107 50.9026 38.8896 50.0225C39.6475 48.2621 40.6682 46.2067 41.9521 43.8564C43.2745 41.5224 44.7286 39.1994 46.3135 36.8877C47.9149 34.5377 49.5734 32.3709 51.2891 30.3877C53.0595 28.3827 54.7549 26.8667 56.376 25.8408C56.7539 25.5953 57.1433 25.3773 57.543 25.1865C57.9426 24.9957 58.3699 24.7936 58.8242 24.5811L59.4482 24.2373Z" fill="black"/>
<path d="M50 0C77.6142 0 100 22.3858 100 50C100 77.6142 77.6142 100 50 100C46.8728 100 43.8129 99.7114 40.8447 99.1621C41.8563 97.4771 42.7443 95.7553 43.5029 93.9932C45.1999 90.0513 46.7573 85.9581 48.1758 81.7148C49.6324 77.4882 50.9984 73.3134 52.2744 69.1904C52.5439 68.3538 52.8304 67.4786 53.1328 66.5654C53.4352 65.6523 53.7322 64.8043 54.0234 64.0225L55.3623 62.9668L56.8662 61.8447L58.2461 61.0098C58.7881 60.6989 59.3742 60.3389 60.0039 59.9297C60.6338 59.5204 61.2171 59.113 61.7539 58.709C62.3455 58.2832 62.8445 57.8634 63.25 57.4482C63.7102 57.0114 64.0227 56.6014 64.1875 56.2188C64.3687 55.7978 64.3939 55.264 64.2637 54.6182C64.1881 53.9506 64.0009 53.2798 63.7012 52.6064C63.4396 51.9496 63.0877 51.3442 62.6455 50.791C62.2416 50.2543 61.8291 49.8951 61.4082 49.7139C60.9107 49.4997 60.4121 49.4447 59.9141 49.5479C59.4544 49.6675 59.0167 49.8422 58.6006 50.0713C58.9524 49.0433 59.3595 47.8342 59.8213 46.4453C60.3378 45.0348 60.8625 43.6051 61.3955 42.1562C61.9286 40.7073 62.4556 39.3235 62.9775 38.0059C63.4994 36.6882 63.9502 35.5892 64.3291 34.709C64.4444 34.4412 64.5869 34.1626 64.7568 33.873C64.9269 33.5834 65.1248 33.2822 65.3496 32.9707C65.5579 32.6975 65.7559 32.3972 65.9424 32.0693C66.1454 31.7031 66.3125 31.3667 66.4443 31.0605C66.7079 30.4483 66.8397 29.8249 66.8408 29.1904C66.8801 28.5723 66.7718 27.9809 66.5156 27.417C66.6346 24.9278 65.5269 23.1808 63.1924 22.1758L63.0781 22.126C63.6529 21.7386 64.0396 21.3155 64.2373 20.8564C64.4021 20.4737 64.4982 20.0386 64.5264 19.5518C64.5928 19.0815 64.5852 18.6248 64.5039 18.1816C64.439 17.7001 64.2837 17.2695 64.0381 16.8916C63.8308 16.5303 63.5165 16.2593 63.0957 16.0781C62.4069 15.7816 61.6302 15.7417 60.7656 15.959C59.9173 16.1381 59.1365 16.37 58.4248 16.6533L57.793 16.8574C55.5649 17.7128 53.3882 18.9758 51.2627 20.6465C49.1755 22.3336 47.1562 24.2312 45.2051 26.3398C43.2704 28.4102 41.4527 30.5766 39.7529 32.8389C38.1081 35.0792 36.6334 37.1887 35.3281 39.167C34.5219 40.4075 33.7179 41.6948 32.917 43.0283C32.1543 44.3784 31.4601 45.7811 30.834 47.2354C30.2903 48.4983 29.8476 49.8954 29.5059 51.4268C29.1642 52.958 29.044 54.4485 29.1455 55.8984C29.2854 57.3649 29.7267 58.7117 30.4688 59.9385C31.2108 61.1651 32.3851 62.1244 33.9922 62.8164C35.1403 63.3107 36.2814 63.5074 37.4141 63.4053C38.5848 63.3196 39.7177 63.0589 40.8125 62.623C41.9457 62.2036 43.0246 61.6472 44.0488 60.9541C45.1278 60.2392 46.1139 59.5295 47.0068 58.8252C46.9463 59.0711 46.8912 59.2514 46.8418 59.3662C46.8089 59.4427 46.7761 59.5193 46.7432 59.5957C44.0426 61.6539 41.311 63.8353 38.5498 66.1396C35.7723 68.4821 33.1233 70.9481 30.6025 73.5371C28.1199 76.1428 25.831 78.8778 23.7363 81.7412C21.9386 84.1988 20.4204 86.7432 19.1826 89.375C7.50463 80.2222 0 65.9879 0 50C0 22.3858 22.3858 0 50 0ZM42.165 74.0244C41.2743 76.7256 40.4002 79.2298 39.543 81.5371C38.6693 83.8827 37.6721 86.3566 36.5518 88.959C36.3211 89.4948 35.9973 90.1949 35.5801 91.0586C35.2011 91.9388 34.7588 92.8602 34.2539 93.8223C33.7491 94.7841 33.1869 95.7213 32.5674 96.6338C32.5235 96.6984 32.4778 96.7619 32.4336 96.8252C30.4264 96.0718 28.4815 95.1918 26.6064 94.1973L26.7773 93.8018C27.5188 92.0796 28.4744 90.3356 29.6426 88.5703C30.8108 86.8051 32.083 85.0619 33.459 83.3408C34.8185 81.658 36.254 80.0076 37.7666 78.3906C39.3011 76.8284 40.7677 75.3735 42.165 74.0244ZM59.4473 24.2373C59.239 24.5104 59.0579 24.7731 58.9043 25.0244C58.789 25.2921 58.6818 25.541 58.583 25.7705C57.6715 27.7824 56.5677 30.0299 55.2725 32.5117C53.9938 34.9551 52.5947 37.4148 51.0752 39.8906C49.5557 42.3665 47.9547 44.7165 46.2715 46.9404C44.5882 49.1644 42.9217 51.0331 41.2725 52.5459C40.6533 53.1412 40.0228 53.7094 39.3818 54.25C38.7574 54.7522 38.0533 55.1752 37.2705 55.5186C37.2885 54.5283 37.4679 53.5842 37.8086 52.6875C38.1493 51.7908 38.5097 50.9027 38.8887 50.0225C39.6466 48.262 40.6671 46.2059 41.9512 43.8555C43.2735 41.5216 44.7277 39.1993 46.3125 36.8877C47.9139 34.5377 49.5724 32.3709 51.2881 30.3877C53.0585 28.3828 54.7539 26.8667 56.375 25.8408C56.7528 25.5953 57.1415 25.3773 57.541 25.1865C57.9407 24.9957 58.3679 24.7937 58.8223 24.5811L59.4473 24.2373Z" fill="url(#paint0_linear_238_2)"/>
<defs>
<linearGradient id="paint0_linear_238_2" x1="19.5" y1="10" x2="87.5" y2="82" gradientUnits="userSpaceOnUse">
<stop stop-color="#FF74F6"/>
<stop offset="0.5" stop-color="#FB7655"/>
<stop offset="1" stop-color="#F63539"/>
</linearGradient>
</defs>
</svg>
