<?xml version="1.0" encoding="UTF-8"?>
<svg version="1.1" xmlns="http://www.w3.org/2000/svg" width="629" height="629">
<path d="M0 0 C0.9796875 0.17160645 1.959375 0.34321289 2.96875 0.52001953 C57.09382673 10.27613436 109.11496219 33.0178011 151 69 C152.04434607 69.86216533 153.08999597 70.72275295 154.13671875 71.58203125 C167.10878364 82.33170794 179.63029199 94.14418758 190.0078125 107.44921875 C192.21312534 110.27288401 194.53985619 112.97044014 196.875 115.6875 C231.1375107 156.83428642 251.8540283 208.69067928 261 261 C261.26901123 262.49563477 261.26901123 262.49563477 261.54345703 264.02148438 C266.89997908 295.27761504 266.59722869 330.80841924 261 362 C260.82839355 362.9796875 260.65678711 363.959375 260.47998047 364.96875 C250.72386564 419.09382673 227.9821989 471.11496219 192 513 C191.13783467 514.04434607 190.27724705 515.08999597 189.41796875 516.13671875 C178.66829206 529.10878364 166.85581242 541.63029199 153.55078125 552.0078125 C150.72711599 554.21312534 148.02955986 556.53985619 145.3125 558.875 C104.16571358 593.1375107 52.30932072 613.8540283 0 623 C-1.49563477 623.26901123 -1.49563477 623.26901123 -3.02148438 623.54345703 C-34.27761504 628.89997908 -69.80841924 628.59722869 -101 623 C-101.9796875 622.82839355 -102.959375 622.65678711 -103.96875 622.47998047 C-158.09382673 612.72386564 -210.11496219 589.9821989 -252 554 C-253.04434607 553.13783467 -254.08999597 552.27724705 -255.13671875 551.41796875 C-268.10878364 540.66829206 -280.63029199 528.85581242 -291.0078125 515.55078125 C-293.21312534 512.72711599 -295.53985619 510.02955986 -297.875 507.3125 C-332.1375107 466.16571358 -352.8540283 414.30932072 -362 362 C-362.17934082 361.00291016 -362.35868164 360.00582031 -362.54345703 358.97851562 C-367.89997908 327.72238496 -367.59722869 292.19158076 -362 261 C-361.82839355 260.0203125 -361.65678711 259.040625 -361.47998047 258.03125 C-351.72386564 203.90617327 -328.9821989 151.88503781 -293 110 C-292.13783467 108.95565393 -291.27724705 107.91000403 -290.41796875 106.86328125 C-279.66829206 93.89121636 -267.85581242 81.36970801 -254.55078125 70.9921875 C-251.72711599 68.78687466 -249.02955986 66.46014381 -246.3125 64.125 C-205.16571358 29.8624893 -153.30932072 9.1459717 -101 0 C-100.00291016 -0.17934082 -99.00582031 -0.35868164 -97.97851562 -0.54345703 C-66.72238496 -5.89997908 -31.19158076 -5.59722869 0 0 Z " fill="#18171B" transform="translate(365,3)"/>
<path d="M0 0 C10.32035755 8.22339247 16.54935686 18.2683077 18.9375 31.3125 C21.53589757 58.50596792 11.46969534 85.04661012 2.9375 110.375 C-10.40994906 148.53538252 -10.40994906 148.53538252 -15.625 188.375 C-15.63974365 189.16551758 -15.6544873 189.95603516 -15.66967773 190.77050781 C-15.56605575 196.52618174 -13.91026086 200.32467233 -11.0625 205.3125 C33.056678 208.84203424 86.32697452 155.76942441 118.13769531 129.78027344 C119.71060294 128.49753868 121.28848284 127.22090587 122.8671875 125.9453125 C133.43568055 117.38389232 143.66810159 108.42068637 153.74609375 99.2890625 C155.79288796 97.44293439 157.85881557 95.62256716 159.9375 93.8125 C162.94241058 91.19453967 165.91472756 88.54335035 168.875 85.875 C170.13376953 84.74384766 170.13376953 84.74384766 171.41796875 83.58984375 C173.07530469 82.09181762 174.72404533 80.58421728 176.36328125 79.06640625 C177.13027344 78.36386719 177.89726563 77.66132813 178.6875 76.9375 C179.36296875 76.31101562 180.0384375 75.68453125 180.734375 75.0390625 C187.72585099 69.55992706 194.35598602 69.45827607 202.9375 70.3125 C209.72743187 72.0153378 213.38091264 76.51322379 216.9375 82.3125 C220.30042279 87.92892776 219.77994793 94.5715599 218.37890625 100.79296875 C214.86212808 109.50465576 206.70146693 115.55138519 199.83935547 121.62792969 C197.4720237 123.72479608 195.14544741 125.86502317 192.8125 128 C187.82653 132.45324533 182.74168539 136.79013921 177.65625 141.12890625 C174.47751848 143.84379215 171.3209615 146.58328127 168.16894531 149.32910156 C162.46435526 154.2963044 156.72571924 159.20346238 150.84375 163.9609375 C148.68800194 165.70523902 146.54373636 167.46016752 144.40625 169.2265625 C134.57648857 177.32328064 124.483672 185.02419588 114.24755859 192.59912109 C112.21673673 194.10538909 110.19451215 195.62212876 108.17578125 197.14453125 C81.55104624 217.10845437 51.72171036 237.59951838 19.9375 248.3125 C18.143125 248.92738281 18.143125 248.92738281 16.3125 249.5546875 C1.78136878 253.8723392 -16.42325817 255.47210272 -30.44140625 248.86328125 C-34.67477517 246.35859055 -38.42492466 243.62133572 -42.0625 240.3125 C-42.68769531 239.76722656 -43.31289063 239.22195313 -43.95703125 238.66015625 C-54.11956302 229.25040461 -61.33807813 213.23843238 -62.25537109 199.40356445 C-63.2374562 160.05766378 -51.1974908 124.49559582 -39.11816406 87.54736328 C-37.03223936 81.15548023 -34.99052911 74.75403787 -33.0625 68.3125 C-32.69511719 67.0853125 -32.32773437 65.858125 -31.94921875 64.59375 C-29.37768083 55.54193652 -27.99464163 46.64618133 -27.0625 37.3125 C-42.28577603 39.178579 -54.65952026 44.2150938 -68.0625 51.3125 C-68.68044434 51.63283203 -69.29838867 51.95316406 -69.93505859 52.28320312 C-100.86223173 68.38748895 -129.71802558 91.13423342 -156.12890625 113.80859375 C-158.86618383 116.14493853 -161.63993014 118.42397432 -164.4375 120.6875 C-174.45236402 128.84830028 -184.13656415 137.39853675 -193.66015625 146.125 C-195.72930552 148.0091034 -197.82103926 149.85704747 -199.9375 151.6875 C-207.76512802 158.49896535 -215.29507731 165.65516742 -222.86987305 172.74487305 C-244.28446227 192.78152213 -244.28446227 192.78152213 -256.5078125 192.58203125 C-262.71828113 191.92679832 -266.76561897 188.92764824 -270.9375 184.4375 C-275.62913355 178.61303465 -276.28622034 173.59966398 -276.5234375 166.2890625 C-275.17212101 157.56276452 -269.45018608 152.16203586 -263.3125 146.25 C-262.5390625 145.48623047 -261.765625 144.72246094 -260.96875 143.93554688 C-256.73563137 139.78410754 -252.39897412 135.7929274 -247.91162109 131.91870117 C-245.13446102 129.50637795 -242.44277869 127.00563248 -239.75 124.5 C-238.62528497 123.45802565 -237.50028004 122.41636414 -236.375 121.375 C-235.82070312 120.86195313 -235.26640625 120.34890625 -234.6953125 119.8203125 C-223.96445981 109.91096049 -212.96781512 100.33383882 -201.86181641 90.85009766 C-200.7016774 89.85870614 -199.54242905 88.86627096 -198.38427734 87.87255859 C-191.86960487 82.28323232 -185.26963899 76.84050122 -178.49291992 71.57128906 C-174.73283501 68.64317252 -171.02908131 65.65681238 -167.3515625 62.62573242 C-139.33785075 39.5843161 -108.13766538 17.454265 -75.0625 2.3125 C-74.0405957 1.84287842 -74.0405957 1.84287842 -72.99804688 1.36376953 C-50.22233595 -8.94229243 -22.10504845 -15.61628668 0 0 Z " fill="#1DA6F9" transform="translate(343.0625,192.6875)"/>
</svg>